# Blender v2.80 (sub 75) OBJ File: ''
# www.blender.org
mtllib Ball1.mtl
o Golfball01_Mesh
v 0.025981 0.025981 -0.025981
v 0.030000 0.015000 -0.030000
v 0.031820 -0.000000 -0.031820
v 0.030000 -0.015000 -0.030000
v 0.025981 -0.025981 -0.025981
v 0.030000 0.030000 -0.015000
v 0.036742 0.018371 -0.018371
v 0.040249 -0.000000 -0.020125
v 0.036742 -0.018371 -0.018371
v 0.030000 -0.030000 -0.015000
v 0.031820 0.031820 -0.000000
v 0.040249 0.020125 -0.000000
v 0.045000 0.000000 -0.000000
v 0.040249 -0.020125 -0.000000
v 0.031820 -0.031820 0.000000
v 0.030000 0.030000 0.015000
v 0.036742 0.018371 0.018371
v 0.040249 0.000000 0.020125
v 0.036742 -0.018371 0.018371
v 0.030000 -0.030000 0.015000
v 0.025981 0.025981 0.025981
v 0.030000 0.015000 0.030000
v 0.031820 0.000000 0.031820
v 0.030000 -0.015000 0.030000
v 0.025981 -0.025981 0.025981
v -0.025981 0.025981 -0.025981
v -0.030000 0.015000 -0.030000
v -0.031820 -0.000000 -0.031820
v -0.030000 -0.015000 -0.030000
v -0.025981 -0.025981 -0.025981
v -0.030000 0.030000 -0.015000
v -0.036742 0.018371 -0.018371
v -0.040249 -0.000000 -0.020125
v -0.036742 -0.018371 -0.018371
v -0.030000 -0.030000 -0.015000
v -0.031820 0.031820 0.000000
v -0.040249 0.020125 0.000000
v -0.045000 0.000000 0.000000
v -0.040249 -0.020125 0.000000
v -0.031820 -0.031820 0.000000
v -0.030000 0.030000 0.015000
v -0.036742 0.018371 0.018371
v -0.040249 0.000000 0.020125
v -0.036742 -0.018371 0.018371
v -0.030000 -0.030000 0.015000
v -0.025981 0.025981 0.025981
v -0.030000 0.015000 0.030000
v -0.031820 0.000000 0.031820
v -0.030000 -0.015000 0.030000
v -0.025981 -0.025981 0.025981
v 0.015000 0.030000 -0.030000
v 0.018371 0.018371 -0.036742
v 0.020125 -0.000000 -0.040249
v 0.018371 -0.018371 -0.036742
v 0.015000 -0.030000 -0.030000
v 0.018371 -0.036742 -0.018371
v 0.020125 -0.040249 0.000000
v 0.018371 -0.036742 0.018371
v 0.015000 -0.030000 0.030000
v 0.018371 -0.018371 0.036742
v 0.020125 0.000000 0.040249
v 0.018371 0.018371 0.036742
v 0.015000 0.030000 0.030000
v 0.018371 0.036742 0.018371
v 0.020125 0.040249 -0.000000
v 0.018371 0.036742 -0.018371
v -0.000000 0.031820 -0.031820
v -0.000000 0.020125 -0.040249
v -0.000000 -0.000000 -0.045000
v -0.000000 -0.020125 -0.040249
v -0.000000 -0.031820 -0.031820
v -0.000000 -0.040249 -0.020125
v 0.000000 -0.045000 0.000000
v 0.000000 -0.040249 0.020125
v 0.000000 -0.031820 0.031820
v 0.000000 -0.020125 0.040249
v 0.000000 0.000000 0.045000
v 0.000000 0.020125 0.040249
v 0.000000 0.031820 0.031820
v 0.000000 0.040249 0.020125
v 0.000000 0.045000 -0.000000
v -0.000000 0.040249 -0.020125
v -0.015000 0.030000 -0.030000
v -0.018371 0.018371 -0.036742
v -0.020125 -0.000000 -0.040249
v -0.018371 -0.018371 -0.036742
v -0.015000 -0.030000 -0.030000
v -0.018371 -0.036742 -0.018371
v -0.020125 -0.040249 0.000000
v -0.018371 -0.036742 0.018371
v -0.015000 -0.030000 0.030000
v -0.018371 -0.018371 0.036742
v -0.020125 0.000000 0.040249
v -0.018371 0.018371 0.036742
v -0.015000 0.030000 0.030000
v -0.018371 0.036742 0.018371
v -0.020125 0.040249 0.000000
v -0.018371 0.036742 -0.018371
vt 0.507722 0.096796
vt 0.512659 0.096027
vt 0.511478 0.100837
vt 0.506926 0.102079
vt 0.508214 0.089679
vt 0.513295 0.089679
vt 0.507787 0.082563
vt 0.512715 0.083450
vt 0.507039 0.077279
vt 0.511579 0.078522
vt 0.501114 0.097295
vt 0.501114 0.102732
vt 0.501114 0.089679
vt 0.501114 0.082061
vt 0.501114 0.076626
vt 0.494427 0.096794
vt 0.495174 0.102077
vt 0.493994 0.089679
vt 0.494491 0.082561
vt 0.495288 0.077278
vt 0.489498 0.095907
vt 0.490635 0.100834
vt 0.488919 0.089679
vt 0.489555 0.083329
vt 0.490736 0.078519
vt 0.494427 0.096794
vt 0.495174 0.102077
vt 0.490635 0.100834
vt 0.489498 0.095907
vt 0.493994 0.089679
vt 0.488919 0.089679
vt 0.494491 0.082561
vt 0.489555 0.083329
vt 0.495288 0.077278
vt 0.490736 0.078519
vt 0.501114 0.097295
vt 0.501114 0.102732
vt 0.501114 0.089679
vt 0.501114 0.082061
vt 0.501114 0.076626
vt 0.507722 0.096796
vt 0.506926 0.102079
vt 0.508224 0.089679
vt 0.507787 0.082563
vt 0.507039 0.077279
vt 0.512659 0.096027
vt 0.511478 0.100837
vt 0.513295 0.089679
vt 0.512715 0.083450
vt 0.511579 0.078522
vt 0.494427 0.096794
vt 0.495174 0.102077
vt 0.490635 0.100834
vt 0.489498 0.095907
vt 0.493994 0.089679
vt 0.488919 0.089679
vt 0.494491 0.082561
vt 0.489555 0.083329
vt 0.495288 0.077278
vt 0.490736 0.078519
vt 0.501114 0.097300
vt 0.501114 0.102732
vt 0.501114 0.089679
vt 0.501114 0.082057
vt 0.501114 0.076624
vt 0.507722 0.096796
vt 0.506926 0.102079
vt 0.508225 0.089679
vt 0.507787 0.082563
vt 0.507039 0.077279
vt 0.512659 0.096027
vt 0.511478 0.100837
vt 0.513295 0.089679
vt 0.512715 0.083450
vt 0.511579 0.078522
vt 0.477244 0.082530
vt 0.476306 0.077174
vt 0.481045 0.078460
vt 0.482247 0.083535
vt 0.477553 0.089703
vt 0.482629 0.089992
vt 0.476926 0.096763
vt 0.481792 0.096115
vt 0.476320 0.101974
vt 0.480673 0.100776
vt 0.470545 0.082200
vt 0.470276 0.076765
vt 0.470439 0.089818
vt 0.470332 0.097435
vt 0.470602 0.102870
vt 0.463952 0.082872
vt 0.464557 0.077662
vt 0.463325 0.089932
vt 0.463633 0.097105
vt 0.464571 0.102461
vt 0.459086 0.083520
vt 0.460204 0.078859
vt 0.458249 0.089643
vt 0.458631 0.096100
vt 0.459832 0.101175
vt 0.507787 0.082563
vt 0.507039 0.077279
vt 0.511579 0.078522
vt 0.512715 0.083450
vt 0.508226 0.089679
vt 0.513295 0.089679
vt 0.507722 0.096796
vt 0.512659 0.096027
vt 0.506926 0.102079
vt 0.511478 0.100837
vt 0.501114 0.082057
vt 0.501114 0.076624
vt 0.501114 0.089679
vt 0.501114 0.097300
vt 0.501114 0.102732
vt 0.494491 0.082561
vt 0.495288 0.077278
vt 0.493994 0.089679
vt 0.494427 0.096794
vt 0.495174 0.102077
vt 0.489555 0.083329
vt 0.490736 0.078519
vt 0.488919 0.089679
vt 0.489498 0.095907
vt 0.490635 0.100834
vt 0.477244 0.082530
vt 0.476306 0.077174
vt 0.481045 0.078460
vt 0.482247 0.083535
vt 0.477553 0.089703
vt 0.482629 0.089992
vt 0.476926 0.096763
vt 0.481792 0.096115
vt 0.476320 0.101973
vt 0.480673 0.100776
vt 0.470545 0.082200
vt 0.470275 0.076765
vt 0.470439 0.089818
vt 0.470332 0.097435
vt 0.470602 0.102870
vt 0.463952 0.082872
vt 0.464557 0.077662
vt 0.463325 0.089932
vt 0.463633 0.097105
vt 0.464571 0.102461
vt 0.459086 0.083520
vt 0.460204 0.078859
vt 0.458249 0.089643
vt 0.458631 0.096100
vt 0.459832 0.101175
vn 0.8484 0.3743 -0.3743
vn 0.6737 0.3036 -0.6737
vn 0.5634 0.6043 -0.5634
vn 0.6617 0.6845 -0.3060
vn 0.9125 -0.0080 -0.4089
vn 0.7071 -0.0120 -0.7071
vn 0.8403 -0.3834 -0.3834
vn 0.6726 -0.3085 -0.6726
vn 0.6845 -0.6617 -0.3060
vn 0.5907 -0.5496 -0.5907
vn 0.9125 0.4089 0.0080
vn 0.7071 0.7071 -0.0000
vn 1.0000 0.0000 -0.0000
vn 0.9125 -0.4089 -0.0080
vn 0.7071 -0.7071 -0.0000
vn 0.8403 0.3834 0.3834
vn 0.6845 0.6617 0.3060
vn 0.9125 0.0080 0.4089
vn 0.8484 -0.3743 0.3743
vn 0.6617 -0.6845 0.3060
vn 0.6726 0.3085 0.6726
vn 0.5907 0.5496 0.5907
vn 0.7071 0.0120 0.7071
vn 0.6737 -0.3036 0.6737
vn 0.5634 -0.6043 0.5634
vn -0.8484 0.3743 -0.3743
vn -0.6737 0.6737 -0.3036
vn -0.5634 0.5634 -0.6043
vn -0.6617 0.3060 -0.6845
vn -0.9125 -0.0080 -0.4089
vn -0.7071 -0.0000 -0.7071
vn -0.8403 -0.3834 -0.3834
vn -0.6845 -0.3060 -0.6617
vn -0.6726 -0.6726 -0.3085
vn -0.5907 -0.5907 -0.5496
vn -0.9125 0.4089 0.0080
vn -0.7071 0.7071 0.0120
vn -1.0000 0.0000 0.0000
vn -0.9125 -0.4089 -0.0080
vn -0.7071 -0.7071 -0.0120
vn -0.8403 0.3834 0.3834
vn -0.6726 0.6726 0.3085
vn -0.9125 0.0080 0.4089
vn -0.8484 -0.3743 0.3743
vn -0.6737 -0.6737 0.3036
vn -0.6845 0.3060 0.6617
vn -0.5907 0.5907 0.5496
vn -0.7071 -0.0000 0.7071
vn -0.6617 -0.3060 0.6845
vn -0.5634 -0.5634 0.6043
vn 0.3743 0.3743 -0.8484
vn 0.3060 0.6845 -0.6617
vn 0.4089 -0.0080 -0.9125
vn 0.3834 -0.3834 -0.8403
vn 0.3060 -0.6617 -0.6845
vn -0.0080 0.4089 -0.9125
vn -0.0000 0.7071 -0.7071
vn 0.0000 -0.0000 -1.0000
vn 0.0080 -0.4089 -0.9125
vn -0.0000 -0.7071 -0.7071
vn -0.3834 0.3834 -0.8403
vn -0.3060 0.6617 -0.6845
vn -0.4089 0.0080 -0.9125
vn -0.3743 -0.3743 -0.8484
vn -0.3060 -0.6845 -0.6617
vn 0.3743 -0.8484 -0.3743
vn 0.4089 -0.9125 0.0080
vn 0.3834 -0.8403 0.3834
vn 0.3060 -0.6845 0.6617
vn -0.0080 -0.9125 -0.4089
vn -0.0000 -1.0000 0.0000
vn 0.0080 -0.9125 0.4089
vn 0.0000 -0.7071 0.7071
vn -0.3834 -0.8403 -0.3834
vn -0.4089 -0.9125 -0.0080
vn -0.3743 -0.8484 0.3743
vn -0.3060 -0.6617 0.6845
vn 0.3743 -0.3743 0.8484
vn 0.4089 0.0080 0.9125
vn 0.3834 0.3834 0.8403
vn 0.3060 0.6617 0.6845
vn -0.0080 -0.4089 0.9125
vn 0.0000 0.0000 1.0000
vn 0.0080 0.4089 0.9125
vn 0.0000 0.7071 0.7071
vn -0.3834 -0.3834 0.8403
vn -0.4089 -0.0080 0.9125
vn -0.3743 0.3743 0.8484
vn -0.3060 0.6845 0.6617
vn 0.3743 0.8484 0.3743
vn 0.4089 0.9125 -0.0080
vn 0.3834 0.8403 -0.3834
vn -0.0080 0.9125 0.4089
vn -0.0000 1.0000 -0.0000
vn 0.0080 0.9125 -0.4089
vn -0.3834 0.8403 0.3834
vn -0.4089 0.9125 0.0080
vn -0.3743 0.8484 -0.3743
usemtl 01_-_Default
s 1
f 7/1/1 2/2/2 1/3/3
f 1/3/3 6/4/4 7/1/1
f 8/5/5 3/6/6 2/2/2
f 2/2/2 7/1/1 8/5/5
f 9/7/7 4/8/8 3/6/6
f 3/6/6 8/5/5 9/7/7
f 10/9/9 5/10/10 4/8/8
f 4/8/8 9/7/7 10/9/9
f 12/11/11 7/1/1 6/4/4
f 6/4/4 11/12/12 12/11/11
f 13/13/13 8/5/5 7/1/1
f 7/1/1 12/11/11 13/13/13
f 14/14/14 9/7/7 8/5/5
f 8/5/5 13/13/13 14/14/14
f 15/15/15 10/9/9 9/7/7
f 9/7/7 14/14/14 15/15/15
f 17/16/16 12/11/11 11/12/12
f 11/12/12 16/17/17 17/16/16
f 18/18/18 13/13/13 12/11/11
f 12/11/11 17/16/16 18/18/18
f 19/19/19 14/14/14 13/13/13
f 13/13/13 18/18/18 19/19/19
f 20/20/20 15/15/15 14/14/14
f 14/14/14 19/19/19 20/20/20
f 22/21/21 17/16/16 16/17/17
f 16/17/17 21/22/22 22/21/21
f 23/23/23 18/18/18 17/16/16
f 17/16/16 22/21/21 23/23/23
f 24/24/24 19/19/19 18/18/18
f 18/18/18 23/23/23 24/24/24
f 25/25/25 20/20/20 19/19/19
f 19/19/19 24/24/24 25/25/25
f 32/26/26 31/27/27 26/28/28
f 26/28/28 27/29/29 32/26/26
f 33/30/30 32/26/26 27/29/29
f 27/29/29 28/31/31 33/30/30
f 34/32/32 33/30/30 28/31/31
f 28/31/31 29/33/33 34/32/32
f 35/34/34 34/32/32 29/33/33
f 29/33/33 30/35/35 35/34/34
f 37/36/36 36/37/37 31/27/27
f 31/27/27 32/26/26 37/36/36
f 38/38/38 37/36/36 32/26/26
f 32/26/26 33/30/30 38/38/38
f 39/39/39 38/38/38 33/30/30
f 33/30/30 34/32/32 39/39/39
f 40/40/40 39/39/39 34/32/32
f 34/32/32 35/34/34 40/40/40
f 42/41/41 41/42/42 36/37/37
f 36/37/37 37/36/36 42/41/41
f 43/43/43 42/41/41 37/36/36
f 37/36/36 38/38/38 43/43/43
f 44/44/44 43/43/43 38/38/38
f 38/38/38 39/39/39 44/44/44
f 45/45/45 44/44/44 39/39/39
f 39/39/39 40/40/40 45/45/45
f 47/46/46 46/47/47 41/42/42
f 41/42/42 42/41/41 47/46/46
f 48/48/48 47/46/46 42/41/41
f 42/41/41 43/43/43 48/48/48
f 49/49/49 48/48/48 43/43/43
f 43/43/43 44/44/44 49/49/49
f 50/50/50 49/49/49 44/44/44
f 44/44/44 45/45/45 50/50/50
f 52/51/51 51/52/52 1/53/3
f 1/53/3 2/54/2 52/51/51
f 53/55/53 52/51/51 2/54/2
f 2/54/2 3/56/6 53/55/53
f 54/57/54 53/55/53 3/56/6
f 3/56/6 4/58/8 54/57/54
f 55/59/55 54/57/54 4/58/8
f 4/58/8 5/60/10 55/59/55
f 68/61/56 67/62/57 51/52/52
f 51/52/52 52/51/51 68/61/56
f 69/63/58 68/61/56 52/51/51
f 52/51/51 53/55/53 69/63/58
f 70/64/59 69/63/58 53/55/53
f 53/55/53 54/57/54 70/64/59
f 71/65/60 70/64/59 54/57/54
f 54/57/54 55/59/55 71/65/60
f 84/66/61 83/67/62 67/62/57
f 67/62/57 68/61/56 84/66/61
f 85/68/63 84/66/61 68/61/56
f 68/61/56 69/63/58 85/68/63
f 86/69/64 85/68/63 69/63/58
f 69/63/58 70/64/59 86/69/64
f 87/70/65 86/69/64 70/64/59
f 70/64/59 71/65/60 87/70/65
f 27/71/29 26/72/28 83/67/62
f 83/67/62 84/66/61 27/71/29
f 28/73/31 27/71/29 84/66/61
f 84/66/61 85/68/63 28/73/31
f 29/74/33 28/73/31 85/68/63
f 85/68/63 86/69/64 29/74/33
f 30/75/35 29/74/33 86/69/64
f 86/69/64 87/70/65 30/75/35
f 56/76/66 55/77/55 5/78/10
f 5/78/10 10/79/9 56/76/66
f 57/80/67 56/76/66 10/79/9
f 10/79/9 15/81/15 57/80/67
f 58/82/68 57/80/67 15/81/15
f 15/81/15 20/83/20 58/82/68
f 59/84/69 58/82/68 20/83/20
f 20/83/20 25/85/25 59/84/69
f 72/86/70 71/87/60 55/77/55
f 55/77/55 56/76/66 72/86/70
f 73/88/71 72/86/70 56/76/66
f 56/76/66 57/80/67 73/88/71
f 74/89/72 73/88/71 57/80/67
f 57/80/67 58/82/68 74/89/72
f 75/90/73 74/89/72 58/82/68
f 58/82/68 59/84/69 75/90/73
f 88/91/74 87/92/65 71/87/60
f 71/87/60 72/86/70 88/91/74
f 89/93/75 88/91/74 72/86/70
f 72/86/70 73/88/71 89/93/75
f 90/94/76 89/93/75 73/88/71
f 73/88/71 74/89/72 90/94/76
f 91/95/77 90/94/76 74/89/72
f 74/89/72 75/90/73 91/95/77
f 35/96/34 30/97/35 87/92/65
f 87/92/65 88/91/74 35/96/34
f 40/98/40 35/96/34 88/91/74
f 88/91/74 89/93/75 40/98/40
f 45/99/45 40/98/40 89/93/75
f 89/93/75 90/94/76 45/99/45
f 50/100/50 45/99/45 90/94/76
f 90/94/76 91/95/77 50/100/50
f 60/101/78 59/102/69 25/103/25
f 25/103/25 24/104/24 60/101/78
f 61/105/79 60/101/78 24/104/24
f 24/104/24 23/106/23 61/105/79
f 62/107/80 61/105/79 23/106/23
f 23/106/23 22/108/21 62/107/80
f 63/109/81 62/107/80 22/108/21
f 22/108/21 21/110/22 63/109/81
f 76/111/82 75/112/73 59/102/69
f 59/102/69 60/101/78 76/111/82
f 77/113/83 76/111/82 60/101/78
f 60/101/78 61/105/79 77/113/83
f 78/114/84 77/113/83 61/105/79
f 61/105/79 62/107/80 78/114/84
f 79/115/85 78/114/84 62/107/80
f 62/107/80 63/109/81 79/115/85
f 92/116/86 91/117/77 75/112/73
f 75/112/73 76/111/82 92/116/86
f 93/118/87 92/116/86 76/111/82
f 76/111/82 77/113/83 93/118/87
f 94/119/88 93/118/87 77/113/83
f 77/113/83 78/114/84 94/119/88
f 95/120/89 94/119/88 78/114/84
f 78/114/84 79/115/85 95/120/89
f 49/121/49 50/122/50 91/117/77
f 91/117/77 92/116/86 49/121/49
f 48/123/48 49/121/49 92/116/86
f 92/116/86 93/118/87 48/123/48
f 47/124/46 48/123/48 93/118/87
f 93/118/87 94/119/88 47/124/46
f 46/125/47 47/124/46 94/119/88
f 94/119/88 95/120/89 46/125/47
f 64/126/90 63/127/81 21/128/22
f 21/128/22 16/129/17 64/126/90
f 65/130/91 64/126/90 16/129/17
f 16/129/17 11/131/12 65/130/91
f 66/132/92 65/130/91 11/131/12
f 11/131/12 6/133/4 66/132/92
f 51/134/52 66/132/92 6/133/4
f 6/133/4 1/135/3 51/134/52
f 80/136/93 79/137/85 63/127/81
f 63/127/81 64/126/90 80/136/93
f 81/138/94 80/136/93 64/126/90
f 64/126/90 65/130/91 81/138/94
f 82/139/95 81/138/94 65/130/91
f 65/130/91 66/132/92 82/139/95
f 67/140/57 82/139/95 66/132/92
f 66/132/92 51/134/52 67/140/57
f 96/141/96 95/142/89 79/137/85
f 79/137/85 80/136/93 96/141/96
f 97/143/97 96/141/96 80/136/93
f 80/136/93 81/138/94 97/143/97
f 98/144/98 97/143/97 81/138/94
f 81/138/94 82/139/95 98/144/98
f 83/145/62 98/144/98 82/139/95
f 82/139/95 67/140/57 83/145/62
f 41/146/42 46/147/47 95/142/89
f 95/142/89 96/141/96 41/146/42
f 36/148/37 41/146/42 96/141/96
f 96/141/96 97/143/97 36/148/37
f 31/149/27 36/148/37 97/143/97
f 97/143/97 98/144/98 31/149/27
f 26/150/28 31/149/27 98/144/98
f 98/144/98 83/145/62 26/150/28
